<svg width="656" height="86" viewBox="0 0 656 86" fill="none" xmlns="http://www.w3.org/2000/svg">
<path opacity="0.9" fill-rule="evenodd" clip-rule="evenodd" d="M77.9821 0C68.0509 0 60 8.05088 60 17.9821C60 22.6021 61.7422 26.8151 64.6055 30H19.5C8.73045 30 0 38.7304 0 49.5C0 60.2696 8.73048 69 19.5 69H183.321C180.638 70.4338 178.812 73.2626 178.812 76.5179C178.812 81.2221 182.625 85.0357 187.329 85.0357H744.371C749.075 85.0357 752.889 81.2221 752.889 76.5179C752.889 71.8136 749.075 68 744.371 68H679.073C686.812 65.4152 692.391 58.1091 692.391 49.5C692.391 38.7304 683.661 30 672.891 30H629.472C632.335 26.8151 634.077 22.6021 634.077 17.9821C634.077 8.05088 626.026 0 616.095 0H77.9821Z" fill="white"/>
</svg>
