<svg width="345" height="258" viewBox="0 0 345 258" fill="none" xmlns="http://www.w3.org/2000/svg">
<path d="M95.8496 163.072C66.6049 183.423 24.302 189.5 8 189.5C129.688 189.5 271.774 149.882 277.641 147.822C299.253 140.233 300.325 124.502 292.101 93.6422C291.78 92.4366 290.208 91.8516 289.227 91.0795C286.816 89.1806 285.611 82.0457 285.181 76.9066C285.092 75.8463 284.165 75.0569 283.232 74.5456C277.402 71.3517 276.922 52.5431 277.537 41.4476C277.591 40.4828 276.957 39.6302 276.062 39.2647C266.207 35.238 257.783 17.83 253.369 5.69953C252.711 3.89159 249.603 3.662 248.304 5.08061C241.759 12.2251 228.595 15.2378 221.341 10.6388C219.931 9.74449 217.639 10.1579 217.117 11.7444C214.166 20.7129 206.673 42.1729 192.179 80.8837C176.394 123.043 161.586 114.282 154.555 102.223C153.708 100.771 151.494 100.696 150.66 102.156C142.346 116.711 122.634 144.433 95.8496 163.072Z" fill="#E6E6E0"/>
<path d="M280.17 38.0562C272.215 34.7604 259.327 16.9984 253 5L265.793 135.34C265.85 135.924 266.078 136.479 266.447 136.935L304.191 183.519C304.653 184.09 305.31 184.472 306.035 184.591L345 191C323.245 187.097 314.291 132.463 311.128 104.378C310.889 102.254 308.146 101.116 306.43 99.8425C301.745 96.3651 300.816 81.0192 300.062 74.1053C299.895 72.5753 298.441 71.637 297.044 70.9911C290.777 68.0939 286.375 52.5836 284.372 42.0079C284.019 40.1406 281.925 38.7837 280.17 38.0562Z" fill="#769586"/>
<path d="M91.4084 169.967C60.9739 186.982 16.912 189.541 0.608887 189.541C122.306 189.541 349.52 286.372 342.871 189.541C331.044 189.541 303.962 154.755 297.844 119.278C297.615 117.946 296.018 116.548 295.039 115.616C290.032 110.848 281.619 91.4481 279.93 83.9363C279.696 82.8983 278.744 82.1225 277.825 81.5865C272.061 78.2247 271.96 58.4504 272.613 47.2795C272.669 46.3144 272.033 45.4576 271.118 45.1443C261.639 41.8979 255.21 31.9679 252.573 16.6648C252.206 14.5316 247.445 13.3232 245.728 14.6421C238.729 20.0205 227.744 21.8748 221.352 17.8269C219.942 16.9341 217.778 17.3841 217.399 19.0091C215.196 28.4375 209.681 51.3327 192.191 87.938C176.611 120.546 163.581 117.308 154.678 107.835C153.689 106.782 151.917 106.953 151.21 108.214C143.109 122.668 121.956 152.889 91.4084 169.967Z" fill="#D3DBCB"/>
<path d="M187.462 104.218L189.971 85.2222C189.99 85.0745 190.026 84.9295 190.078 84.7898L217.748 10.0324C218.153 8.93728 219.409 8.42926 220.501 8.84167C232.12 13.2276 242.854 8.68911 249.488 4.2938C250.698 3.49263 252.43 4.08026 253.025 5.40341C257.811 16.0569 274.853 32.707 283.338 39.4784C283.763 39.8177 284.032 40.3057 284.089 40.8467L285.017 49.6599C285.175 51.1641 283.074 51.6843 282.512 50.28C281.979 48.9483 280 49.3295 280 50.7637V66.0095C280 68.0575 277.287 68.7819 276.266 67.0064L272.234 59.9936C271.213 58.2181 268.5 58.9425 268.5 60.9905V79.9152C268.5 82.1252 265.444 82.7026 264.638 80.645L257.862 63.355C257.056 61.2974 254 61.8748 254 64.0848V105.5L249.641 74.5892C249.349 72.5171 246.473 72.2286 245.775 74.2013L229.735 119.532C228.974 121.681 225.787 121.088 225.85 118.81L227.332 65.0793C227.386 63.1498 224.945 62.2719 223.757 63.7931L191.021 105.711C189.767 107.317 187.195 106.238 187.462 104.218Z" fill="white"/>
<path d="M177.724 124.442C172.784 126.39 156.137 116.963 153.5 107C168 119 173.439 112.747 177.724 110.147C176.076 114.046 182.669 122.493 177.724 124.442Z" fill="#769686"/>
<path d="M262.219 166.416C262.394 165.74 262.299 165.019 261.954 164.414L261.651 163.881C260.828 162.435 258.97 162.044 257.674 163.043V163.043C256.422 164.009 256.215 165.862 257.22 167.108L257.505 167.462C258.918 169.214 261.652 168.608 262.219 166.416V166.416Z" fill="#DEDCD5"/>
<ellipse cx="17.2222" cy="15.4454" rx="17.2222" ry="15.4454" transform="matrix(0.356961 -0.934119 -0.926388 -0.376569 297.887 157.808)" fill="#F7F6F0"/>
<path d="M300.573 176.603C300.739 176.866 300.968 177.081 301.24 177.229V177.229C303.119 178.25 305.254 176.281 304.435 174.282L299.834 163.05L295.335 168.315L300.573 176.603Z" fill="#DEDCD5"/>
<path d="M282.857 177.351C282.59 177.417 282.341 177.541 282.127 177.714V177.714C280.318 179.182 281.569 182.088 283.859 181.74L301.421 179.074C302.402 178.925 303.278 178.362 303.828 177.527V177.527C305.327 175.248 303.296 172.331 300.661 172.978L282.857 177.351Z" fill="#DEDCD5"/>
<path d="M262.319 164.383C262.186 164.192 262.018 164.029 261.824 163.904V163.904C259.914 162.67 257.616 164.859 258.675 166.902L267.01 182.979C267.504 183.932 268.365 184.627 269.388 184.897V184.897C272.358 185.683 274.707 182.217 272.934 179.664L262.319 164.383Z" fill="#F7F6F0"/>
<path d="M288.444 220.479C288.538 221.105 288.823 221.689 289.26 222.149V222.149C291.45 224.452 295.301 223.191 295.674 220.049L296.952 209.306L287.014 210.886L288.444 220.479Z" fill="#DEDCD5"/>
<path d="M290.404 245.275C290.428 245.48 290.484 245.68 290.568 245.869V245.869C291.689 248.358 295.42 247.504 295.349 244.774L294.676 218.595C294.644 217.352 293.738 216.305 292.512 216.095L291.655 215.948C289.24 215.535 287.105 217.563 287.394 219.997L290.404 245.275Z" fill="#F7F6F0"/>
<path d="M276.098 235.417C276.177 235.568 276.277 235.707 276.394 235.83V235.83C278.132 237.654 281.099 235.625 280.115 233.287L269.617 208.343C269.176 207.295 268.072 206.712 266.963 206.942L266.218 207.096C264.008 207.554 262.832 210.047 263.88 212.052L276.098 235.417Z" fill="#F7F6F0"/>
<path d="M264.49 208.073C264.165 208.572 263.996 209.161 264.007 209.76V209.76C264.061 212.82 267.565 214.395 269.8 212.363L277.775 205.112L269.724 200.027L264.49 208.073Z" fill="#DEDCD5"/>
<path d="M268.631 177.052C268.238 179.057 268.35 181.138 268.957 183.102L269.354 184.385C269.608 185.207 270.732 185.261 271.038 184.467L276.811 169.442L270.024 169.942L268.631 177.052Z" fill="#F7F6F0"/>
<path d="M278.948 158.062C278.491 160.125 279.362 162.277 281.124 163.442V163.442C284.426 165.624 288.821 164.156 290.133 160.433L293.782 150.074L282.065 144L278.948 158.062Z" fill="#F7F6F0"/>
<path d="M298.487 212.731L299.5 190.5L270.915 189.731L262.5 208C264 214.5 268.5 226.5 270.5 231C273.635 231.333 280.024 231.4 280.5 229C278.5 223.689 276.1 213 276.5 212.731C278.262 208.486 280.951 204.493 283.035 200.907C283.494 201.358 284.136 201.735 285 202L285.5 212.731L285.987 238.294C285.995 238.717 286.269 239.089 286.67 239.223L287.288 239.429C290.382 240.461 293.682 240.72 296.9 240.183L297.18 240.137C297.655 240.058 298.006 239.65 298.015 239.168L298.487 212.731Z" fill="#B0B294"/>
<path d="M302.628 167.189C301.583 166.572 298.17 158.686 297.535 156.158L292.185 154.658C287.587 163.952 282.012 157.519 279.75 154.585L271.387 158.465L268.334 171.146L272.349 171.938L268.573 192.32C270.92 195.267 297.108 192.695 299.545 192.449C299.605 192.895 299.665 192.931 299.727 192.431C299.727 192.431 299.664 192.437 299.545 192.449C299.227 190.064 298.929 175.946 298.464 169.275C300.487 168.51 302.022 167.581 302.628 167.189C302.771 167.274 302.87 167.221 302.911 167C302.911 167 302.812 167.07 302.628 167.189Z" fill="#5F614D"/>
<path d="M255.596 223.519L254.146 223.407L254.45 228.894L255.596 223.519Z" fill="#36342C"/>
<path d="M254.871 223.463L254.787 224.549L255.987 224.419C256.144 224.402 256.267 224.276 256.279 224.118V224.118C256.291 223.961 256.19 223.817 256.037 223.776L254.871 223.463Z" fill="#36342C"/>
<path d="M253.671 223.592C253.514 223.609 253.391 223.736 253.379 223.893V223.893C253.367 224.051 253.469 224.195 253.621 224.236L254.787 224.549L254.871 223.463L253.671 223.592Z" fill="#36342C"/>
<path d="M259.673 161.544L259.504 163.717L260.473 163.437C260.788 163.346 261.013 163.069 261.038 162.743V162.743C261.064 162.416 260.884 162.108 260.587 161.97L259.673 161.544Z" fill="#36342C"/>
<path d="M258.704 161.824C258.389 161.915 258.164 162.191 258.138 162.518V162.518C258.113 162.845 258.293 163.153 258.59 163.291L259.504 163.717L259.673 161.544L258.704 161.824Z" fill="#36342C"/>
<path d="M258.391 159.259L261.291 159.484L260.921 156.888C260.861 156.468 260.517 156.145 260.094 156.112V156.112C259.67 156.079 259.281 156.345 259.157 156.752L258.391 159.259Z" fill="#36342C"/>
<path d="M258.761 161.854C258.821 162.275 259.165 162.597 259.588 162.63V162.63C260.012 162.663 260.402 162.397 260.526 161.991L261.291 159.484L258.391 159.259L258.761 161.854Z" fill="#36342C"/>
<rect width="1.45437" height="61.0149" transform="matrix(-0.997007 -0.0773111 -0.0773111 0.997007 260.313 162.687)" fill="black"/>
<path d="M307.739 216.303L306.291 216.444L307.545 221.795L307.739 216.303Z" fill="#36342C"/>
<path d="M307.015 216.374L307.121 217.458L308.28 217.122C308.432 217.078 308.531 216.932 308.516 216.775V216.775C308.5 216.617 308.375 216.493 308.218 216.48L307.015 216.374Z" fill="#36342C"/>
<path d="M305.856 216.71C305.704 216.754 305.605 216.9 305.621 217.057V217.057C305.636 217.215 305.761 217.338 305.918 217.352L307.121 217.458L307.015 216.374L305.856 216.71Z" fill="#36342C"/>
<path d="M300.977 154.563L301.189 156.732L302.094 156.288C302.389 156.144 302.562 155.832 302.531 155.506V155.506C302.499 155.18 302.268 154.908 301.951 154.823L300.977 154.563Z" fill="#36342C"/>
<path d="M300.072 155.007C299.778 155.151 299.604 155.463 299.636 155.789V155.789C299.667 156.115 299.898 156.387 300.215 156.472L301.189 156.732L300.977 154.563L300.072 155.007Z" fill="#36342C"/>
<path d="M299.318 152.536L302.213 152.253L301.397 149.762C301.265 149.358 300.87 149.1 300.448 149.141V149.141C300.025 149.183 299.687 149.512 299.636 149.934L299.318 152.536Z" fill="#36342C"/>
<path d="M300.133 155.027C300.265 155.431 300.66 155.689 301.083 155.648V155.648C301.506 155.606 301.843 155.277 301.895 154.855L302.213 152.253L299.318 152.536L300.133 155.027Z" fill="#36342C"/>
<rect width="1.45437" height="61.0149" transform="matrix(-0.995263 0.097222 0.097222 0.995263 301.807 155.577)" fill="black"/>
<path d="M264.027 167.595C264.102 166.883 263.915 166.167 263.503 165.587L261.556 162.842C260.596 161.489 258.794 161.114 257.41 161.979V161.979C255.708 163.042 255.39 165.452 256.753 166.962L258.889 169.33C260.629 171.26 263.753 170.205 264.027 167.595V167.595Z" fill="#F7F6F0"/>
<path d="M295.639 155.5C295.466 154.687 293.323 153.991 292.245 154.5C292.066 163.143 291.56 181.089 292.078 182.309C292.725 183.834 296.714 183.326 296.606 175.699C296.498 168.073 295.854 156.517 295.639 155.5Z" fill="#21211B"/>
<path d="M278.671 155C278.372 154.227 276.26 155.816 275.278 156.5C276.475 165.057 279.029 182.046 279.734 183.162C280.615 184.557 284.469 183.381 283.15 175.876C281.83 168.371 279.046 155.966 278.671 155Z" fill="#0F2B3E"/>
<path d="M269.975 185.5C271.915 189.9 275.631 187 277.247 185L278.217 188.5C277.053 192.1 271.591 191 269.006 190L269.975 185.5Z" fill="#0F2B3E"/>
<path d="M308.742 146.837C307.908 145.331 294.524 146.632 286.088 146.83C284.192 146.875 282.516 148.16 282.076 150.005C278.042 166.914 271.053 196.33 275.5 197.5C294 202.368 309.5 209 309.5 190.5C309.5 175.942 309.933 148.987 308.742 146.837Z" fill="#0F2B3E"/>
<path d="M310.5 173.5C309.658 172.746 294.167 171.798 285.766 171.065C283.902 170.902 282.188 172.025 281.697 173.829C279.667 181.286 277.389 192.335 280.034 193.71C283.837 195.687 298.882 198 307.5 198C312 198 311.708 174.582 310.5 173.5Z" fill="#094C79"/>
<path d="M310.621 181.24C309.762 180.696 294.522 179.099 286.349 178.099C284.575 177.882 282.894 178.85 282.347 180.543C280.842 185.197 279.516 191.439 281.991 192.431C285.784 193.95 308.574 198.584 310.181 194.757C311.677 191.194 311.848 182.017 310.621 181.24Z" fill="#0F2B3E"/>
<path d="M282 182.135C283.014 182.506 305.487 186.007 312 187.135C312.564 187.233 311.855 181.759 311.055 181.214C308 179.135 284.411 175.61 283.124 177.021C281.926 178.333 280.732 181.671 282 182.135Z" fill="#295B7C"/>
<path d="M275.078 130.033C275.876 126.327 281.061 121.97 283.553 120.255C286.711 118.882 294.621 117.476 301.003 122.828C307.384 128.18 306.329 138.54 305 143C282.565 155.866 274.081 134.665 275.078 130.033Z" fill="#5F614D"/>
<path d="M310.5 147C309.664 146.251 297.082 145.219 289.369 144.463C287.506 144.281 285.794 145.402 285.303 147.205C283.272 154.663 280.994 165.711 283.64 167.087C287.443 169.064 309.5 172 311 167.086C312.87 160.961 311.709 148.082 310.5 147Z" fill="#094C79"/>
<path d="M298 142C296 140.8 293.5 139 291.5 136C287.5 132.4 286.5 132.833 286.5 133.5C287.167 134.333 288.3 136.4 287.5 138C286.5 140 287.5 141.5 290.5 143C293.5 144.5 292.5 143.5 290.5 141.5C288.9 139.9 289.5 139.167 290.5 139C290.5 140.5 299 145 300.5 145C302 145 305.5 143 305 143C303.419 143 300.5 143.5 298 142Z" fill="#4B4D34"/>
</svg>
