<svg width="278" height="146" viewBox="0 0 278 146" fill="none" xmlns="http://www.w3.org/2000/svg">
<path d="M47.6304 74.4628C47.2209 88.9775 47.1935 100.189 40.1196 109.617C36.9716 113.813 39.4408 122.291 44.686 122.329C166.958 123.22 242.41 131.49 277 122.253C257.798 118.839 242.082 102.885 234.505 81.0537C232.962 76.6099 223.564 73.4452 218.966 72.4501C213.154 71.1921 206.311 66.3219 199.989 57.3509C198.507 55.2477 195.747 54.439 193.399 55.4913C179.74 61.6133 158.417 66.7825 138.046 23.0562C137.139 21.1088 135.653 19.9569 133.508 20.0843C128.357 20.3904 99.8531 27.3153 97.8615 32.0755C95.5299 37.648 92.8854 44.7672 90 54.3747C86.6314 65.5912 72.7206 76.7647 56.1337 69.8099C52.4288 68.2564 47.7437 70.4471 47.6304 74.4628Z" fill="#5B9176"/>
<path d="M47.7655 70.9066C42.0977 92.5143 31.1471 120.422 0 120.422C134.5 120.422 263.5 138.907 278 121.606C258.057 121.606 237.329 109.673 228.697 89.751C227.181 86.2529 222.273 84.8514 218.507 85.4411C208.782 86.9638 198.055 77.8784 193.353 68.9346C192.084 66.5219 189.389 64.9846 186.712 65.4986C165.453 69.5808 152.391 60.4334 137.675 23.2599C136.712 20.8277 134.064 19.5369 131.519 20.1416C122.91 22.1873 117.477 21.2222 112.546 10.8946C111.691 9.10432 99.8654 5.48663 97.8819 5.44608C96.2391 5.4125 94.0285 8.08706 93.8344 9.71874C92.1309 24.0439 91.1989 41.7334 78 61.9281C73.2216 69.2392 65.6473 70.785 58.9352 67.4175C55.0128 65.4496 48.8789 66.6619 47.7655 70.9066Z" fill="#BACBC0"/>
<path opacity="0.3" d="M6.59175 119.081C6.06873 119.131 5.53819 119.171 5 119.203C5.35699 119.155 5.89065 119.115 6.59175 119.081C34.2306 116.467 40.864 88.7722 45.3314 68.9657C46.0836 65.6309 49.8186 64.1748 52.6494 66.0913C57.6047 69.4461 63.4173 72.9649 68.1989 72.4418C69.2766 72.3239 70.1594 71.6035 70.7699 70.7075C80.6199 56.2506 89.5283 41.6373 93.4573 9.87294C93.7445 7.55136 96.9039 4.64631 99.0729 5.52241C101.452 6.48324 110.625 7.72206 111.775 10.0152C115.443 17.3246 118.4 19.6538 116.703 21.202C113.818 23.8334 107.898 24.9305 110.302 30.1933C112.707 35.4561 130.979 54.6459 122.324 57.3309C113.668 60.0159 96.358 73.6115 102.128 79.3129C107.898 85.0143 154.602 91.4043 122.324 102.241C112.444 105.558 177.042 119.203 83.7902 119.203C45.2338 119.203 14.7046 118.694 6.59175 119.081Z" fill="#E6E6E0"/>
<path d="M75.4678 54.4144C75.2876 53.7398 75.3851 53.0211 75.7386 52.4189L76.0661 51.8612C76.9095 50.4245 78.8148 50.0403 80.149 51.0379V51.0379C81.4432 52.0056 81.6622 53.8603 80.629 55.1028L80.3156 55.4797C78.866 57.2231 76.0529 56.6049 75.4678 54.4144V54.4144Z" fill="#DEDCD5"/>
<ellipse cx="47.0979" cy="23.9037" rx="17.292" ry="15.8622" transform="rotate(-111.511 47.0979 23.9037)" fill="#DEDCD5"/>
<path d="M35.9208 64.588C35.7431 64.8606 35.4988 65.0833 35.211 65.235V65.235C33.255 66.266 31.0857 64.2744 31.9463 62.2376L36.6733 51.0497L41.3134 56.3147L35.9208 64.588Z" fill="#E7E4D9"/>
<path d="M54.2053 65.3565C54.4658 65.4185 54.7097 65.5364 54.9202 65.7019V65.7019C56.7546 67.1447 55.4896 70.0847 53.1807 69.7448L34.9623 67.0627C33.9954 66.9203 33.1325 66.3789 32.5837 65.5703V65.5703C31.0454 63.3035 33.0981 60.3297 35.7631 60.9644L54.2053 65.3565Z" fill="#E7E4D9"/>
<path d="M75.3596 52.3914C75.5006 52.1946 75.6787 52.0273 75.8839 51.8988V51.8988C77.8711 50.6544 80.2212 52.849 79.1156 54.9166L70.5469 70.9414C70.0251 71.9174 69.1177 72.6296 68.0456 72.9046V72.9046C64.9723 73.693 62.591 70.213 64.4389 67.6338L75.3596 52.3914Z" fill="#E7E4D9"/>
<path d="M50.489 108.44C50.3888 109.091 50.0866 109.695 49.6251 110.165V110.165C47.3516 112.483 43.4062 111.146 43.0108 107.923L41.7082 97.3064L51.9585 98.8863L50.489 108.44Z" fill="#E7E4D9"/>
<path d="M47.4329 133.257C47.4062 133.474 47.3457 133.686 47.2536 133.884V133.884C46.0735 136.427 42.2567 135.531 42.3311 132.729L43.0228 106.664C43.0568 105.382 43.9952 104.304 45.2603 104.094L46.1539 103.946C48.6407 103.533 50.8255 105.627 50.5183 108.129L47.4329 133.257Z" fill="#E7E4D9"/>
<path d="M61.1592 123.407C61.0741 123.565 60.9672 123.71 60.8415 123.838V123.838C59.0211 125.689 55.9878 123.645 57.0218 121.262L67.8201 96.3848C68.285 95.3138 69.4348 94.7129 70.5795 94.9428L71.3548 95.0985C73.631 95.5556 74.8176 98.0826 73.7155 100.126L61.1592 123.407Z" fill="#E7E4D9"/>
<path d="M73.131 96.0794C73.463 96.5743 73.6352 97.1591 73.6244 97.755V97.755C73.5686 100.811 69.9605 102.4 67.6679 100.379L59.424 93.1122L67.7279 88.0265L73.131 96.0794Z" fill="#E7E4D9"/>
<path d="M68.8508 65.0285C69.259 67.048 69.1448 69.1383 68.519 71.1013L68.0866 72.4576C67.8297 73.2633 66.7041 73.302 66.3925 72.5158L60.4182 57.4418L67.4182 57.9418L68.8508 65.0285Z" fill="#E7E4D9"/>
<path d="M58.1968 45.986C58.6787 48.0942 57.7858 50.278 55.965 51.4448V51.4448C52.5588 53.6275 48.0074 52.0879 46.6257 48.2856L42.9148 38.0742L55 32L58.1968 45.986Z" fill="#E7E4D9"/>
<path d="M36 100.731L38.5 78.5L66.5 77.731L75.5 93.5C71.5 94.5 63.5 97.731 60 100.731C59.1401 100.301 57.1711 98.0226 55.8018 95.6043L55.5 101.5C53.5 102.7 41 101.231 36 100.731Z" fill="#B0B294"/>
<path d="M33.7919 55.1889C34.8695 54.5716 38.3894 46.6856 39.0444 44.1576L44.5618 42.6582C49.3047 51.9522 55.0543 45.5188 57.387 42.5851L66.0128 46.4649L69.1614 59.1464L65.0205 59.9377L68.9152 80.3201C66.4945 83.2672 39.485 80.6954 36.971 80.4491C36.9097 80.895 36.8477 80.9307 36.7837 80.4306C36.7837 80.4306 36.8481 80.4371 36.971 80.4491C37.2989 78.0644 37.6063 63.946 38.0859 57.2749C35.9998 56.51 34.4171 55.5809 33.7919 55.1889C33.6441 55.2736 33.5422 55.2215 33.5 55C33.5 55 33.6016 55.0696 33.7919 55.1889Z" fill="#5F614D"/>
<path d="M77.75 115.552H79.25L78.5 121L77.75 115.552Z" fill="#36342C"/>
<path d="M78.5 115.552L78.5 116.642L77.268 116.418C77.1128 116.39 77 116.255 77 116.097V116.097C77 115.939 77.1128 115.804 77.268 115.776L78.5 115.552Z" fill="#36342C"/>
<path d="M79.732 115.776C79.8872 115.804 80 115.939 80 116.097V116.097C80 116.255 79.8872 116.39 79.732 116.418L78.5 116.642L78.5 115.552L79.732 115.776Z" fill="#36342C"/>
<path d="M78.5 53.4478L78.5 55.6269L77.5121 55.2681C77.2047 55.1564 77 54.8643 77 54.5373V54.5373C77 54.2103 77.2047 53.9182 77.5121 53.8066L78.5 53.4478Z" fill="#36342C"/>
<path d="M79.4879 53.8066C79.7953 53.9182 80 54.2103 80 54.5373V54.5373C80 54.8643 79.7953 55.1564 79.4879 55.2681L78.5 55.6269L78.5 53.4478L79.4879 53.8066Z" fill="#36342C"/>
<path d="M80 51.2685L77 51.2685L77.5823 48.7308C77.6804 48.303 78.0611 47.9998 78.5 47.9998V47.9998C78.9389 47.9998 79.3196 48.303 79.4177 48.7308L80 51.2685Z" fill="#36342C"/>
<path d="M79.4177 53.8061C79.3196 54.2339 78.9389 54.5371 78.5 54.5371V54.5371C78.0611 54.5371 77.6804 54.2339 77.5823 53.8061L77 51.2685L80 51.2685L79.4177 53.8061Z" fill="#36342C"/>
<rect x="77.75" y="54.5371" width="1.5" height="61.0149" fill="black"/>
<path d="M73.6032 55.5908C73.5265 54.8817 73.7175 54.1695 74.1387 53.594L76.1664 50.8232C77.1494 49.4799 78.9961 49.1111 80.4197 49.9737V49.9737C82.1775 51.0388 82.5132 53.4498 81.1133 54.9545L78.8878 57.3466C77.1015 59.2667 73.8854 58.1982 73.6032 55.5908V55.5908Z" fill="#E7E4D9"/>
<path d="M41 43.5C41.1779 42.6865 43.388 41.9914 44.5 42.4998C44.6853 51.1431 45.2065 69.0885 44.6727 70.3087C44.0055 71.834 39.891 71.3256 40.0022 63.6992C40.1134 56.0727 40.7776 44.5169 41 43.5Z" fill="#21211B"/>
<path d="M58.5 42.9999C58.8089 42.2266 60.9865 43.816 62 44.5C60.7648 53.0566 58.1307 70.0458 57.4039 71.1619C56.4955 72.5571 52.5202 71.3805 53.881 63.8757C55.2419 56.3708 58.1137 43.9664 58.5 42.9999Z" fill="#21211B"/>
<path d="M68.5 73.5C66.5 77.9 62.6667 75 61 73L60 76.5C61.2 80.1 66.8333 79 69.5 78L68.5 73.5Z" fill="#21211B"/>
<path d="M40.8625 48.3689C41.8589 47.4993 54.5626 48.3689 60.79 48.9124C61.8279 58.1518 63.1564 76.9566 60.1673 78.261C56.4309 79.8915 33.3897 79.348 34.0124 71.1956C34.6351 63.0432 39.617 49.4559 40.8625 48.3689Z" fill="#323327"/>
<ellipse cx="48.9744" cy="25.4451" rx="19.6472" ry="15.4704" transform="rotate(-41.2152 48.9744 25.4451)" fill="#5F614D"/>
<ellipse cx="44.4185" cy="20.3617" rx="14.7526" ry="14.1466" transform="rotate(-41.2152 44.4185 20.3617)" fill="#6D7059"/>
</svg>
