<svg width="373" height="142" viewBox="0 0 373 142" fill="none" xmlns="http://www.w3.org/2000/svg">
<path d="M130.266 52.7205C106.071 60.3543 71.3437 56.4688 41.7489 66.2525C22.5566 72.5972 22.4652 96.4561 36.9027 110.604C43.2102 116.785 51.5346 120.485 60.3492 121.025L161.206 127.203C231.791 136.522 322.799 124.743 363.747 103.571C395.106 87.3569 320.082 53.7878 286.551 44.5299C253.021 35.2721 172.132 39.5113 130.266 52.7205Z" fill="#345946"/>
<path d="M121.266 48.7205C97.0711 56.3543 62.3437 52.4688 32.7489 62.2525C13.5566 68.5972 13.4652 92.4561 27.9027 106.604C34.2102 112.785 42.5346 116.485 51.3492 117.025L152.206 123.203C222.791 132.522 313.799 120.743 354.747 99.5707C386.106 83.3569 311.082 49.7878 277.551 40.5299C244.021 31.2721 163.132 35.5113 121.266 48.7205Z" fill="#437D60"/>
<path d="M134.133 44.9574C135.779 43.6459 138.037 45.5409 137.031 47.3897C138.99 48.1596 138.478 51.0628 136.374 51.1162C136.687 53.1976 133.917 54.2058 132.819 52.4105C131.172 53.7219 128.914 51.827 129.92 49.9781C127.961 49.2083 128.473 46.3051 130.577 46.2516C130.264 44.1703 133.034 43.162 134.133 44.9574Z" fill="#D9D9D9"/>
<path d="M275.114 67.9433C276.758 66.6333 279.014 68.5261 278.01 70.373C279.966 71.142 279.455 74.042 277.353 74.0954C277.666 76.1745 274.898 77.1816 273.801 75.3882C272.157 76.6983 269.901 74.8054 270.906 72.9586C268.949 72.1895 269.46 69.2895 271.562 69.2361C271.25 67.157 274.017 66.1499 275.114 67.9433Z" fill="#D9D9D9"/>
<path d="M242.981 71.2562C243.203 69.4669 245.797 69.4669 246.019 71.2562C247.802 70.91 248.598 73.4006 246.957 74.1808C247.82 75.7675 245.727 77.3137 244.5 75.9882C243.273 77.3137 241.18 75.7675 242.043 74.1808C240.402 73.4006 241.198 70.91 242.981 71.2562Z" fill="#D9D9D9"/>
<circle cx="133.5" cy="48.5" r="1.5" fill="#FFB595"/>
<circle cx="244.5" cy="73.5" r="1.5" fill="#FFB595"/>
<circle cx="274.5" cy="71.5" r="1.5" fill="#FFB595"/>
<path d="M275.5 85.5745L273 99.766L323 101L320.5 75.0851L315.5 95.4468L312 81.2553L304.5 96.6809L301 81.2553L298.5 94.2128L289 72V96.6809L284 84.3404L280 94.2128L275.5 85.5745Z" fill="#0C5646"/>
<path d="M73.6387 76.3558L72.8774 88.0997L122.47 81.65L116.873 61.2556L114.384 78.3158L109.212 67.4645L103.655 80.9412L98.3342 69.101L97.4242 79.8561L85.352 63.4697L88.3274 83.2472L81.8953 74.1023L79.13 82.6084L73.6387 76.3558Z" fill="#0C5646"/>
<path d="M58.1327 86.9574C59.7788 85.6459 62.0371 87.5409 61.0315 89.3897C62.9903 90.1596 62.4784 93.0628 60.3744 93.1162C60.6871 95.1976 57.9169 96.2058 56.8185 94.4105C55.1724 95.7219 52.9141 93.827 53.9198 91.9781C51.961 91.2083 52.4729 88.3051 54.5769 88.2516C54.2642 86.1703 57.0344 85.162 58.1327 86.9574Z" fill="#D9D9D9"/>
<circle cx="57.4999" cy="90.5" r="1.5" fill="#FFB595"/>
<path d="M82.9815 73.2562C83.2032 71.4669 85.7968 71.4669 86.0185 73.2562C87.8025 72.91 88.5982 75.4006 86.957 76.1808C87.8203 77.7675 85.7272 79.3137 84.5 77.9882C83.2728 79.3137 81.1797 77.7675 82.043 76.1808C80.4018 75.4006 81.1975 72.91 82.9815 73.2562Z" fill="#D9D9D9"/>
<circle cx="84.5" cy="75.5" r="1.5" fill="#FFB595"/>
<path d="M296.114 75.9433C297.758 74.6333 300.014 76.5261 299.01 78.373C300.966 79.142 300.455 82.042 298.353 82.0954C298.666 84.1745 295.898 85.1816 294.801 83.3882C293.157 84.6983 290.901 82.8054 291.906 80.9586C289.949 80.1895 290.46 77.2895 292.562 77.2361C292.25 75.157 295.017 74.1499 296.114 75.9433Z" fill="#D9D9D9"/>
<circle cx="295.415" cy="79.2109" r="1.5" fill="#FFB595"/>
<path d="M154.127 64.1336C153.809 64.0482 153.51 63.9065 153.242 63.715V63.715C150.356 61.6517 152.186 57.1031 155.696 57.6128L185.827 61.9869C187.356 62.2088 188.736 63.0204 189.674 64.248V64.248C192.619 68.1048 189.001 73.5017 184.315 72.2428L154.127 64.1336Z" fill="#DEDCD5"/>
<path d="M198.922 19.3181C198.753 18.8266 198.726 18.2976 198.844 17.7916V17.7916C199.587 14.6006 203.965 14.1921 205.285 17.1905L213.995 36.9644C214.272 37.5927 214.415 38.2717 214.415 38.9583V38.9583C214.415 43.7654 207.692 44.8863 206.132 40.3393L198.922 19.3181Z" fill="#DEDCD5"/>
<path d="M239.692 31.087C239.481 30.8187 239.322 30.5137 239.223 30.1872V30.1872C238.197 26.818 242.353 24.313 244.853 26.7934L265.451 47.227C266.576 48.3432 267.204 49.8656 267.193 51.4504V51.4504C267.16 56.2467 261.103 58.3196 258.138 54.549L239.692 31.087Z" fill="#DEDCD5"/>
<path d="M264.436 48.9992C264.902 49.0223 265.357 49.1459 265.771 49.3616V49.3616C269.508 51.3098 268.055 56.9688 263.841 56.8754L215.247 55.7982C212.566 55.7388 210.411 53.5692 210.371 50.8872V50.8872C210.333 48.408 212.398 46.413 214.875 46.536L264.436 48.9992Z" fill="#DEDCD5"/>
<path d="M236.287 17.5055C236.9 17.5628 237.483 17.7922 237.971 18.1673V18.1673C241.091 20.5691 239.242 25.5595 235.31 25.3488L204.25 23.6842C201.668 23.5458 199.626 21.4453 199.561 18.8603V18.8603C199.497 16.3065 201.677 14.2697 204.221 14.5075L236.287 17.5055Z" fill="#DEDCD5"/>
<path d="M172.969 86.7966C173.136 87.0802 173.251 87.3914 173.308 87.7155V87.7155C173.922 91.2095 169.431 93.1748 167.282 90.3522L148.838 66.1277C147.903 64.8988 147.486 63.3524 147.676 61.8197V61.8197C148.275 57.0041 154.637 55.6855 157.101 59.8664L172.969 86.7966Z" fill="#DEDCD5"/>
<path d="M172.319 92.8646C172.004 92.9477 171.677 92.9717 171.354 92.9351V92.9351C168.021 92.5583 167.401 87.9795 170.514 86.7298L196.125 76.4468C197.527 75.8839 199.097 75.9101 200.479 76.5193V76.5193C204.658 78.3612 204.182 84.4386 199.766 85.6062L172.319 92.8646Z" fill="#DEDCD5"/>
<path d="M216.925 35.4776C218.254 34.4293 219.866 33.803 221.553 33.6793V33.6793C230.602 33.0161 236.126 43.4214 230.506 50.5445L208.42 78.5426C204.764 83.1778 198.735 85.247 193.003 83.8342L190.244 83.1542C179.78 80.5752 176.86 67.0894 185.321 60.414L216.925 35.4776Z" fill="#D9D9D9"/>
<path d="M130.201 106.059C130.046 106.106 129.887 106.135 129.725 106.145V106.145C126.701 106.347 125.777 102.124 128.61 101.046L168.459 85.8741C169.239 85.577 170.084 85.4893 170.908 85.6197V85.6197C175.23 86.3031 175.642 92.3641 171.453 93.6266L130.201 106.059Z" fill="#DEDCD5"/>
<path d="M130.567 104.643C130.673 105.043 130.663 105.464 130.537 105.858V105.858C129.814 108.127 126.709 108.389 125.616 106.273L120.94 97.2192C120.206 95.7973 120.336 94.0827 121.277 92.788V92.788C123.081 90.3051 126.958 91.0292 127.745 93.9957L130.567 104.643Z" fill="#DEDCD5"/>
<path d="M180.578 91.4766C180.203 88.066 177.088 84.3761 174.678 82.1392C174.112 81.6139 174.268 80.6511 174.988 80.3735L180.245 78.3474C180.442 78.2716 180.615 78.1369 180.712 77.9496C181.767 75.9077 180.059 73.7696 178.904 72.8143C178.804 72.7317 178.687 72.6746 178.563 72.6401L168.274 69.8025C167.84 69.6829 167.546 69.289 167.49 68.8426C166.971 64.7107 162.559 58.7717 161.443 57.3262C161.341 57.1933 161.436 57.0053 161.603 57.0133C162.773 57.0688 166.468 57.3565 173.363 58.8462C181.506 60.6056 185.782 59.3085 187.606 58.052C188.19 57.6493 189.15 57.5775 189.625 58.1056L209.48 80.212C209.864 80.6397 209.814 81.3009 209.346 81.6348C202.885 86.2445 189.396 90.6091 182.025 92.6093C181.329 92.7982 180.657 92.1933 180.578 91.4766Z" fill="#544D33"/>
<path d="M201.229 35.3769C203.35 35.3769 209.184 31.7923 211.835 30L216.254 35.3769C214.133 45.4137 221.852 46.1307 225.976 45.2345H234.815H247.188L237.466 56.8844H229.512L210.067 81.9766C205.648 82.8727 178.25 57.7806 182.669 56.8844C186.204 56.1675 198.283 47.0268 203.881 42.5461C202.113 40.1563 199.108 35.3769 201.229 35.3769Z" fill="#B3A589"/>
<path d="M216 36L214.5 34C212.5 38.4 205.333 41.8333 202 43L180 58L187.5 68L197 62L209 47.5C209 43.5 213.667 38.1667 216 36Z" fill="#7F754F"/>
<path d="M218 53C220.8 53 226.5 48.6667 229 46.5L234.5 45.5L233.5 47.5C231.667 49.3333 227.7 53.5 226.5 55.5C225.3 57.5 226 60.6667 226.5 62L211.5 84C206.3 84.8 199.667 78.6667 197 75.5L209 65L218 53Z" fill="#7F754F"/>
<ellipse cx="234.188" cy="25.5" rx="21" ry="21.5" fill="#E7E4D9"/>
<path d="M208.332 13.5131C206.896 11.9162 216.592 9.60175 220.722 9C227.095 16.221 246.389 22.2385 255.239 24.3446C256.655 28.6772 257.6 32.1674 257.009 33.3709C246.389 36.9814 218.067 24.3446 208.332 13.5131Z" fill="#7F754F"/>
<path d="M226.238 0.485556C224.9 0.945193 220.951 6.53851 219.188 9.56498C224.828 19.0076 245.624 23.7894 255.318 25C256.728 22.8209 256.199 13.8016 255.318 10.4725C245.624 -1.33072 228.881 -0.422938 226.238 0.485556Z" fill="#7F754F"/>
</svg>
