<svg width="448" height="122" viewBox="0 0 448 122" fill="none" xmlns="http://www.w3.org/2000/svg">
<path d="M121.939 104.395C84.5826 117.381 32.5666 120.386 11.7284 120.427C167.278 120.118 346.799 95.5786 354.297 94.2565C381.974 89.3759 383.268 79.3589 372.641 59.7144C372.214 58.9243 371.295 58.5709 370.398 58.5209C366.6 58.3093 364.677 53.4828 363.951 49.8217C363.752 48.8177 362.89 48.0756 361.886 47.877C354.269 46.3706 353.311 35.0176 353.936 27.7277C354.031 26.6161 353.252 25.6086 352.158 25.3897C338.923 22.7414 327.685 10.7227 322.287 3.03131C321.469 1.86476 319.646 1.76386 318.491 2.59885C310.557 8.33525 289.553 10.8352 280.223 6.63703C279.162 6.1599 277.835 6.42933 277.2 7.40363C273.78 12.6542 264.219 26.381 244.97 52.0051C224.085 79.8058 204.476 72.8091 195.925 64.7669C195.098 63.989 193.804 63.9272 192.961 64.6878C183.025 73.65 157.322 92.0944 121.939 104.395Z" fill="#0C5646"/>
<path d="M358.276 25.2152C348.52 24.3624 331.833 12.0268 323 3.92188L337.464 85.9718C337.608 86.7908 338.086 87.5132 338.783 87.9664L387.978 119.937C388.465 120.254 389.033 120.422 389.613 120.422L447.5 120.422C419.224 116.652 401.742 84.7615 396.868 67.1599C396.41 65.5079 394.712 64.5535 392.999 64.5018C384.917 64.2577 383.416 53.0443 382.311 48.0039C382.048 46.8025 380.94 46.1379 379.717 46.0101C370.855 45.0848 364.604 34.682 361.792 27.6016C361.235 26.2004 359.778 25.3464 358.276 25.2152Z" fill="#C7D8B4"/>
<path d="M116.271 108.781C77.389 119.654 21.0698 120.39 0.230193 120.431C158.5 120.431 341.5 120.56 437.729 120.56C422.636 120.59 388.062 98.6603 380.124 76.205C379.767 75.1964 378.679 74.5481 377.656 74.2359C371.68 72.4127 360.186 59.6106 357.382 54.2126C356.911 53.3044 355.975 52.575 354.973 52.3639C347.42 50.7717 346.931 38.8213 347.64 31.44C347.747 30.329 346.963 29.3205 345.864 29.1267C333.418 26.9322 326.651 19.3906 323.942 8.81036C323.494 7.06392 320.737 6.14774 319.167 7.03352C309.86 12.2836 289.239 15.0213 280.257 11.1793C279.189 10.7226 277.908 11.018 277.416 12.0698L277.289 12.3414C274.594 18.1036 267.743 32.7544 244.994 56.4811C224.385 77.9757 207.232 75.007 195.826 68.521C195.034 68.0706 194.048 68.1678 193.375 68.7822C183.634 77.6786 156.269 97.5967 116.271 108.781Z" fill="#0C5646"/>
<path d="M194 81.9216C187.687 83.1698 198.884 71.2361 195.5 64.9217C211.5 76.9217 220.756 70.969 226.231 69.3091C224.129 71.7867 200.318 80.6723 194 81.9216Z" fill="#172D22"/>
<path d="M323 32.4217C327.517 28.5506 324.389 16.4217 323 3.92158C325 21.9216 336.269 26.9731 346.5 29.4216C344.398 31.8993 319.5 35.4217 323 32.4217Z" fill="#172D22" fill-opacity="0.3"/>
<path d="M353 77.9219C357.516 74.0507 355.5 65.922 356.5 52.922C364.5 65.4219 369.606 68.8754 379.5 74.922C377.398 77.3997 349.5 80.9219 353 77.9219Z" fill="#172D22" fill-opacity="0.5"/>
<path d="M379.394 102.969C383.911 99.0976 381.389 88.4222 380 75.9221C388.5 97.9221 421.5 120.422 437.5 120.422C419 122.422 375.894 105.969 379.394 102.969Z" fill="#172D22" fill-opacity="0.8"/>
</svg>
