<svg width="377" height="161" viewBox="0 0 377 161" fill="none" xmlns="http://www.w3.org/2000/svg">
<path d="M131.882 29.8735L129.556 23.4531C115 24 123 41 127 48.0002C129.649 52.6361 130.848 56.049 132.658 60C132.916 56.049 132.866 47.7377 132.658 45.6776C131.882 38 128.005 36.5 128.005 33.3307C128.005 28.9845 130.59 29.215 131.882 29.8735Z" fill="black"/>
<path d="M278.144 39.1507C245.765 11.9148 230.856 33.2116 230 41.5266L277.502 150.733C319.655 123.809 377 132.152 377 132.152C358.384 116.95 353.891 65.2844 337.843 53.4058C321.795 41.5272 299.328 56.969 278.144 39.1507Z" fill="#2A6A4B"/>
<path d="M68.2774 104.557C60.1101 119.691 18.5041 137.824 0 137.036C54.6616 149.254 185.683 157.999 262.252 158.944C357.962 160.127 348.885 169.078 377 131.977C342.495 121.859 343.287 52.5333 296.069 52.5333C248.852 52.5333 266.08 -7.76653 211.844 52.5333C161.409 108.607 146.76 95.0979 122.514 104.557C98.2669 114.015 78.4866 85.6392 68.2774 104.557Z" fill="#69A386"/>
<path d="M179.804 83.6272C179.898 83.8504 179.947 84.0897 179.949 84.3318V84.3318C179.968 86.6764 176.868 87.5289 175.685 85.5041L166.523 69.8115C165.965 68.8557 165.833 67.7097 166.16 66.6525V66.6525C167.098 63.6215 171.31 63.4157 172.539 66.3407L179.804 83.6272Z" fill="#DEDCD5"/>
<path d="M195.336 82.3082C226.432 48.244 236.351 28.3798 246.5 25.7334C256.243 25.7334 254.91 26.087 261 28.7334L254.028 29.6049C253.346 29.6901 252.681 29.8752 252.053 30.1542L248.5 31.7334C222 53.2334 234 57.7334 199.5 105.733C180.828 131.712 172.119 154.733 164 154.733C155.881 154.733 123.43 152.378 117 151.733C163 118.233 152.5 129.233 195.336 82.3082Z" fill="#A4A496"/>
<path d="M155.489 111.44C155.389 112.092 155.087 112.695 154.625 113.166V113.166C152.352 115.484 148.406 114.147 148.011 110.924L146.708 100.307L156.958 101.887L155.489 111.44Z" fill="#DEDCD5"/>
<path d="M152.299 138.869C152.273 139.086 152.212 139.298 152.12 139.496V139.496C150.94 142.039 147.123 141.143 147.198 138.341L147.889 112.276C147.923 110.994 148.862 109.916 150.127 109.706L151.02 109.558C153.507 109.145 155.692 111.24 155.385 113.742L152.299 138.869Z" fill="#DEDCD5"/>
<path d="M167.159 129.138C167.074 129.296 166.967 129.441 166.841 129.569V129.569C165.021 131.421 161.988 129.376 163.022 126.994L173.82 102.116C174.285 101.045 175.435 100.444 176.579 100.674L177.355 100.83C179.631 101.287 180.818 103.814 179.715 105.857L167.159 129.138Z" fill="#DEDCD5"/>
<path d="M179.131 100.811C179.463 101.306 179.635 101.891 179.624 102.486V102.486C179.569 105.542 175.961 107.132 173.668 105.111L165.424 97.8437L173.728 92.758L179.131 100.811Z" fill="#DEDCD5"/>
<path d="M162.365 49.8048C162.45 51.3264 161.789 52.7939 160.594 53.7395V53.7395C157.507 56.1825 152.934 54.8851 151.589 51.1849L147.915 41.0752L161.748 38.6733L162.365 49.8048Z" fill="#DEDCD5"/>
<path d="M171.933 64.2599C172.341 66.2794 172.227 68.3697 171.601 70.3327L171.168 71.689C170.911 72.4947 169.786 72.5334 169.474 71.7472L163.5 56.6732L170.5 57.1732L171.933 64.2599Z" fill="#DEDCD5"/>
<path d="M141 103.731L143.5 84.2314L171.5 80.7314L179 96.2314C175 97.2314 171.5 98.7314 168 101.731C166.88 101.171 162.935 98.1003 161 95.5954V103.731C159 104.931 146 104.231 141 103.731Z" fill="#B0B294"/>
<path d="M171.5 56.2311C171.312 58.049 168.466 48.4695 167.5 45.7313L162 44.7314C158.156 54.1813 152.018 48.3944 149.5 45.7313L141.421 50.2313L139.413 62.848L143.513 63.273L141.421 83.4539C144.026 86.1226 170.122 81.3615 172.551 80.9117C172.648 81.3409 172.711 81.3705 172.732 80.878C172.732 80.878 172.67 80.8897 172.551 80.9117C172.032 78.616 170.554 64.8881 169.529 58.4295C172.097 57.2303 171.5 56.2311 171.5 56.2311Z" fill="#306992"/>
<ellipse cx="150.364" cy="26.0317" rx="17.292" ry="19.298" transform="rotate(-39.0688 150.364 26.0317)" fill="#E7E4D9"/>
<path d="M149.957 73.2451C150.021 73.5641 150.003 73.8942 149.904 74.2042V74.2042C149.233 76.3108 146.29 76.412 145.475 74.3564L141 63.0653L148 63.5653L149.957 73.2451Z" fill="#DEDCD5"/>
<path d="M167.506 74.4087C167.738 74.4749 167.956 74.5859 168.146 74.7356V74.7356C169.989 76.1851 168.718 79.1388 166.399 78.7973L148.421 76.1506C147.326 75.9894 146.349 75.3762 145.728 74.4602V74.4602C143.947 71.8344 146.417 68.4168 149.469 69.284L167.506 74.4087Z" fill="#DEDCD5"/>
<path d="M250.25 104.298L248 115.064L293 116L290.75 96.3404L286.25 111.787L283.1 101.021L276.35 112.723L273.2 101.021L270.95 110.851L262.4 94V112.723L257.9 103.362L254.3 110.851L250.25 104.298Z" fill="#0C5646"/>
<path d="M295.25 130.298L293 141.064L338 142L335.75 122.34L331.25 137.787L328.1 127.021L321.35 138.723L318.2 127.021L315.95 136.851L307.4 120V138.723L302.9 129.362L299.3 136.851L295.25 130.298Z" fill="#0C5646"/>
<path d="M165.25 135.298L163 146.064L208 147L205.75 127.34L201.25 142.787L198.1 132.021L191.35 143.723L188.2 132.021L185.95 141.851L177.4 125V143.723L172.9 134.362L169.3 141.851L165.25 135.298Z" fill="#0C5646"/>
<path d="M66.8302 116.062L64.0265 127.492L113.982 129.816L112.04 108.757L106.604 125.119L103.41 113.53L95.5817 125.827L92.414 113.239L89.6367 123.669L80.6169 105.424L80.0871 125.417L75.3537 115.288L71.1432 123.179L66.8302 116.062Z" fill="#0C5646"/>
<path d="M130.5 24.5C130.5 34.9 138.833 41.1666 143 43C148.5 43 147.5 35.5 145 35.5C142.5 35.5 141 32 142.5 30.5C143.7 29.3 145.333 29.6667 146 30V28L150 17C151.667 16.6667 156 15.6 160 14C165 12 158 8.99998 151 5.99998C144 2.99998 130.5 11.5 130.5 24.5Z" fill="black" stroke="black"/>
<path d="M132.571 36.1841C140.171 33.7841 155.404 17.8508 162.071 10.1841C148.471 -1.0159 137.737 5.51743 134.071 10.1841C125.671 18.9841 129.571 31.1841 132.571 36.1841Z" fill="#5C707B"/>
<path d="M176.5 7.5001C177.3 11.1001 154.167 23.3334 142.5 29.0001L158.5 8.5001C164.167 6.66676 175.7 3.9001 176.5 7.5001Z" fill="#5C707B"/>
</svg>
