<svg width="674" height="436" viewBox="0 0 674 436" fill="none" xmlns="http://www.w3.org/2000/svg">
<path d="M91.5 284.413C79.8518 284.413 52 386.247 26 435.414H664C582.4 435.414 530 316.914 480.5 247.914C462.252 251.859 447.896 218.834 428.315 173.788L427.5 171.914C403 158.914 390.5 92.9135 376 38.9135C349 47.9249 349.5 28.9219 315.5 0.424973C299.405 -13.0645 173 298.914 152 319.914C131 340.914 121 284.413 91.5 284.413Z" fill="#C2DAD6"/>
<path d="M92 283.922C80.8 287.122 26 386.255 0 435.422H638C556.4 435.422 499 310.422 480.5 247.922C458.1 279.122 435.833 210.255 427.5 171.922C398.02 185.068 381.633 76.3092 376.067 39.3693L376 38.9219C336.5 71.4219 335 0.421875 314 0.421875C293 0.421875 147 298.922 126 319.922C105 340.922 106 279.922 92 283.922Z" fill="#8CB09E"/>
<path d="M140.515 323.921C117.715 351.521 112.667 333.422 113 321.922C125.5 334.922 140.5 296.922 200 186.922C259.5 76.9219 293.12 19.6895 299 16.4224C278.5 47.4819 169.015 289.421 140.515 323.921Z" fill="#437D60"/>
</svg>
