<svg width="394" height="135" viewBox="0 0 394 135" fill="none" xmlns="http://www.w3.org/2000/svg">
<path opacity="0.9" fill-rule="evenodd" clip-rule="evenodd" d="M89 30C89 13.4315 102.431 0 119 0L299 0C315.569 0 329 13.4315 329 30V30C329 31.6569 330.343 33 332 33H367C381.912 33 394 45.0883 394 60C394 74.9117 381.912 87 367 87V87C365.54 87 364.506 88.4367 364.745 89.8771C364.913 90.8931 365 91.9364 365 93C365 103.493 356.493 112 346 112H278.355C277.023 112 276 113.168 276 114.5V114.5C276 125.822 266.822 135 255.5 135H96.5C85.1782 135 76 125.822 76 114.5V114.5C76 113.168 74.9771 112 73.6448 112H19C8.5066 112 0 103.493 0 93C0 82.5066 8.50659 74 19 74H21.687C27.9252 74 32.117 66.7339 32.0045 60.4967C32.0015 60.3315 32 60.1659 32 60C32 45.0883 44.0883 33 59 33H86C87.6569 33 89 31.6569 89 30V30Z" fill="white"/>
</svg>
