<svg width="460" height="330" viewBox="0 0 460 330" fill="none" xmlns="http://www.w3.org/2000/svg">
<path d="M387.461 195.844C389.544 253.899 391.98 288.512 424.348 320.028C427.729 323.32 425.445 329.422 420.725 329.422H2C39.125 319.099 68.7195 265.926 79.1363 195.628C79.6023 192.483 85.1987 191.565 87.5976 193.652C99.2223 203.762 118.713 191.496 135.622 151.714C136.919 148.661 140.733 147.573 143.448 149.479C167.087 166.077 205.885 180.928 241.957 56.8214C242.781 53.9885 245.895 52.4105 248.825 52.755C261.99 54.303 276.805 43.396 287.446 15.0911C288.267 12.9081 292.339 13.4611 292.514 15.7866C294.912 47.6161 305.585 61.9169 322.068 147.759C328.139 179.379 348.507 216.285 377.825 192.08C381.363 189.159 387.296 191.259 387.461 195.844Z" fill="#D7E8E5"/>
<path d="M391.928 181.371C398.536 240.675 402.657 329.422 460 329.422H0C36.0929 329.422 73.6879 293.821 86.7594 235.049C87.7391 230.644 94.0814 229.186 98.0696 231.297C117.047 241.343 139.606 210.041 146.824 182.564C147.633 179.486 150.962 177.7 153.986 178.692C192.508 191.32 215.44 163.785 241.779 57.4095C242.535 54.3559 245.897 52.6959 248.788 53.9366C267.79 62.0926 278.032 61.2546 288.343 14.1359C288.59 13.0089 294.481 14.4361 295.394 15.1413C299.687 18.4574 315.756 34.2564 316.144 39.667L316.214 40.639C318.822 76.9962 321.955 120.674 342.588 169.929C352.125 192.696 368.164 194.544 380.793 179.075C383.986 175.164 391.369 176.354 391.928 181.371Z" fill="#B8CEC3"/>
<path d="M372 186.201C352.16 193.311 328.267 90.5123 316 39.5571C320.8 97.326 321.6 126.655 343.199 178.202C352.529 200.469 369.333 196.274 372 186.201Z" fill="#8CB09E"/>
</svg>
