<svg width="545" height="84" viewBox="0 0 545 84" fill="none" xmlns="http://www.w3.org/2000/svg">
<path opacity="0.4" fill-rule="evenodd" clip-rule="evenodd" d="M359.53 83.4575C369.461 83.4575 377.512 75.4066 377.512 65.4754C377.512 62.189 376.631 59.1085 375.091 56.4575L525.5 56.4575C536.27 56.4575 545 47.7271 545 36.9575C545 26.188 536.27 17.4575 525.5 17.4575L453.107 17.4575C457.804 17.4487 461.609 13.6385 461.609 8.93965C461.609 4.23537 457.795 0.421799 453.091 0.421798L92.6147 0.421767C87.9104 0.421766 84.0968 4.23534 84.0968 8.93962C84.0968 13.6439 87.9104 17.4575 92.6147 17.4575L109.16 17.4575C98.4017 17.4708 89.6846 26.1961 89.6846 36.9575C89.6846 40.8386 90.8185 44.4549 92.773 47.4932L17.9822 47.4932C8.05097 47.4932 6.34754e-05 55.5441 6.26072e-05 65.4753C6.1739e-05 75.4066 8.05096 83.4575 17.9822 83.4575L359.53 83.4575Z" fill="white"/>
</svg>
