<svg width="327" height="84" viewBox="0 0 327 84" fill="none" xmlns="http://www.w3.org/2000/svg">
<path opacity="0.4" fill-rule="evenodd" clip-rule="evenodd" d="M118.405 0.421875C108.474 0.421875 100.423 8.47276 100.423 18.404C100.423 21.6904 101.305 24.7709 102.844 27.4219H19.5C8.73045 27.4219 0 36.1523 0 46.9219C0 57.6914 8.73045 66.4219 19.5 66.4219H58.5179C53.8136 66.4219 50 70.2355 50 74.9397C50 79.644 53.8136 83.4576 58.5178 83.4576H267.833C272.537 83.4576 276.35 79.644 276.35 74.9397C276.35 70.2355 272.537 66.4219 267.833 66.4219H253.5C264.27 66.4219 273 57.6914 273 46.9219C273 43.0408 271.866 39.4245 269.912 36.3862H308.791C318.723 36.3862 326.774 28.3353 326.774 18.404C326.774 8.47276 318.723 0.421875 308.791 0.421875H118.405Z" fill="white"/>
</svg>
