<svg width="378" height="56" viewBox="0 0 378 56" fill="none" xmlns="http://www.w3.org/2000/svg">
<path opacity="0.8" fill-rule="evenodd" clip-rule="evenodd" d="M158.115 0C152.869 0 148.615 4.25329 148.615 9.5C148.615 11.1281 149.025 12.6606 149.747 14H63.3462C58.7053 14 54.512 15.9159 51.514 19H9.5C4.25329 19 0 23.2533 0 28.5C0 33.7467 4.25329 38 9.5 38H48.6453C51.3764 43.3425 56.9341 47 63.3462 47H153.115C150.63 47 148.615 49.0147 148.615 51.5C148.615 53.9853 150.63 56 153.115 56H373.5C375.985 56 378 53.9853 378 51.5C378 49.0147 375.985 47 373.5 47H306.577C315.69 47 323.077 39.6127 323.077 30.5C323.077 26.0281 321.298 21.9718 318.409 19H368.5C373.747 19 378 14.7467 378 9.5C378 4.25329 373.747 0 368.5 0H158.115Z" fill="white"/>
</svg>
