<svg width="215" height="30" viewBox="0 0 215 30" fill="none" xmlns="http://www.w3.org/2000/svg">
<path fill-rule="evenodd" clip-rule="evenodd" d="M45 4.5C45 2.01472 47.0147 0 49.5 0H182.5C184.985 0 187 2.01472 187 4.5C187 5.42507 186.721 6.28495 186.242 7H206C210.971 7 215 11.0294 215 16C215 20.9706 210.971 25 206 25H141.917C141.441 27.8377 138.973 30 136 30H6C2.68629 30 0 27.3137 0 24C0 20.6863 2.68629 18 6 18H73.223C73.0771 17.3568 73 16.6874 73 16C73 13.1727 74.3037 10.65 76.3427 9H49.5C47.0147 9 45 6.98528 45 4.5Z" fill="white"/>
</svg>
