<svg width="296" height="98" viewBox="0 0 296 98" fill="none" xmlns="http://www.w3.org/2000/svg">
<path opacity="0.5" fill-rule="evenodd" clip-rule="evenodd" d="M139.016 98C148.198 98 155.641 90.5567 155.641 81.375C155.641 78.5258 154.924 75.8439 153.661 73.5L222.881 73.5C231.003 73.5 238.341 70.1471 243.588 64.75L279.375 64.75C288.557 64.75 296 57.3067 296 48.125C296 38.9433 288.557 31.5 279.375 31.5L248.608 31.5C243.829 22.1506 234.102 15.75 222.881 15.75L147.766 15.75C152.115 15.75 155.641 12.2242 155.641 7.87499C155.641 3.52574 152.115 -1.25788e-05 147.766 -1.2959e-05L-53.125 -3.05215e-05C-57.4742 -3.09017e-05 -61 3.52573 -61 7.87497C-61 12.2242 -57.4742 15.75 -53.125 15.75L19.7468 15.75C3.79957 15.75 -9.1282 28.6777 -9.1282 44.625C-9.1282 52.4507 -6.01498 59.5494 -0.9595 64.75L-44.375 64.75C-53.5567 64.75 -61 72.1932 -61 81.375C-61 90.5567 -53.5567 98 -44.375 98L139.016 98Z" fill="white"/>
</svg>
