<svg width="327" height="84" viewBox="0 0 327 84" fill="none" xmlns="http://www.w3.org/2000/svg">
<path opacity="0.4" fill-rule="evenodd" clip-rule="evenodd" d="M118.405 0C108.474 0 100.423 8.05088 100.423 17.9821C100.423 21.2685 101.305 24.349 102.844 27H19.5C8.73045 27 0 35.7304 0 46.5C0 57.2696 8.73045 66 19.5 66H58.5179C53.8136 66 50 69.8136 50 74.5179C50 79.2221 53.8136 83.0357 58.5178 83.0357H267.833C272.537 83.0357 276.35 79.2221 276.35 74.5179C276.35 69.8136 272.537 66 267.833 66H253.5C264.27 66 273 57.2696 273 46.5C273 42.6189 271.866 39.0026 269.912 35.9643H308.791C318.723 35.9643 326.773 27.9134 326.773 17.9821C326.773 8.05088 318.723 0 308.791 0H118.405Z" fill="white"/>
</svg>
