<svg width="399" height="83" viewBox="0 0 399 83" fill="none" xmlns="http://www.w3.org/2000/svg">
<g clip-path="url(#clip0_198_303)">
<path d="M215.5 7.94304C190.279 -8.18062 178.667 4.42707 178 9.34955L215 74C247.833 58.0605 292.5 63 292.5 63C278 54 274.5 23.4142 262 16.3821C249.5 9.34995 232 18.4915 215.5 7.94304Z" fill="#0C5646"/>
<path d="M51.4266 46.7403C45.0358 55.7144 12.4793 66.4674 -2 66C40.7723 73.2447 143.296 78.4301 203.21 78.991C278.103 79.6921 271 85 293 63C266 57 266.62 15.8917 229.672 15.8917C192.725 15.8917 206.206 -19.8647 163.766 15.8917C124.301 49.1422 112.839 41.1315 93.8661 46.7403C74.8932 52.3491 59.4152 35.5227 51.4266 46.7403Z" fill="#5B9176"/>
<path d="M175.5 15.9909C181.9 5.0257 188.5 0.761469 191 0C193.4 0 193.5 0 195 0.761469L192 1.52294C184.5 3.80735 176.5 30.4588 165 42.6423C159.163 48.8265 152 60.9175 150 60.9175C148 60.9175 129.584 61.1031 128 60.9175C145.5 55.5872 161.722 39.5964 175.5 15.9909Z" fill="#E6E6E0"/>
</g>
<defs>
<clipPath id="clip0_198_303">
<rect width="399" height="83" fill="white"/>
</clipPath>
</defs>
</svg>
