<svg width="480" height="150" viewBox="0 0 480 150" fill="none" xmlns="http://www.w3.org/2000/svg">
<g clip-path="url(#clip0_185_258)">
<path d="M94.8496 124.017C65.6048 139.494 24.9074 142.972 8.60544 142.972C130.294 142.972 270.774 113.986 276.641 112.419C298.213 106.658 299.321 94.7289 291.147 71.3468C290.782 70.3013 289.528 69.8706 288.517 69.4178C286 68.2905 284.716 62.9299 284.229 58.905C284.103 57.8612 283.199 57.096 282.229 56.6909C276.525 54.3095 275.945 40.5564 276.5 32.0633C276.567 31.0382 275.87 30.1229 274.892 29.8071C265.057 26.6293 256.668 13.3653 252.298 4.18706C251.548 2.61124 248.957 2.41846 247.647 3.57088C241.097 9.32995 227.166 11.7495 219.894 7.86363C218.593 7.16837 216.722 7.53296 216.136 8.88698C213.198 15.6808 205.705 32.0082 191.179 61.5124C175.289 93.7883 160.389 86.8215 153.415 77.5577C152.529 76.3801 150.696 76.3034 149.814 77.4845C141.591 88.4964 121.801 109.753 94.8496 124.017Z" fill="#E6E6E0" stroke="#8CB09E" stroke-width="3"/>
<path d="M278.758 29.3714C270.577 26.8756 256.554 11.2815 249.949 1.9585L263.516 102.913C263.609 103.607 263.943 104.248 264.46 104.722L302.731 139.88C303.252 140.359 303.925 140.638 304.632 140.668L349.303 142.58C327.226 139.632 313.802 101.333 310.008 80.1701C309.663 78.2493 307.479 77.267 305.655 76.5729C300.49 74.6072 299.429 62.7173 298.637 57.0951C298.438 55.6877 297.143 54.8646 295.781 54.4591C289.325 52.5372 284.764 40.8333 282.646 32.6846C282.21 31.0058 280.417 29.8775 278.758 29.3714Z" fill="#8CB09E"/>
<path d="M90.4083 129.261C59.9739 142.2 15.912 144.147 -0.391159 144.147C121.306 144.147 348.52 217.787 341.871 144.147C330.082 144.147 303.136 117.862 296.904 90.9715C296.625 89.7675 295.252 88.7536 294.229 88.0595C289.36 84.7543 281.023 70.2869 279.054 64.2355C278.729 63.2358 277.779 62.4717 276.819 62.0439C271.181 59.5327 270.966 45.0736 271.572 36.499C271.645 35.4739 270.946 34.5545 269.953 34.2888C260.581 31.7799 254.217 24.2708 251.587 12.7354C251.134 10.749 247.159 9.60676 245.441 10.7009C238.336 15.224 226.434 16.8153 219.905 13.3305C218.604 12.6366 216.834 13.0378 216.402 14.4466C214.201 21.6108 208.689 39.0259 191.191 66.8772C175.463 91.9124 162.333 89.1636 153.425 81.8019C152.476 81.0175 151.043 81.1625 150.314 82.1552C142.292 93.0909 121.088 116.217 90.4083 129.261Z" fill="#E6E6E0"/>
<path d="M176.493 93.0809C171.553 94.562 154.406 84.3509 151.769 76.7739C161.164 90.6101 172.207 84.1862 176.493 82.2096C174.845 85.1745 181.438 91.5984 176.493 93.0809Z" fill="#8CB09E"/>
</g>
<defs>
<clipPath id="clip0_185_258">
<rect width="480" height="150" fill="white"/>
</clipPath>
</defs>
</svg>
