<svg width="395" height="119" viewBox="0 0 395 119" fill="none" xmlns="http://www.w3.org/2000/svg">
<g clip-path="url(#clip0_191_298)">
<path d="M164.63 74.4628C164.221 88.9775 164.194 100.189 157.12 109.617C153.972 113.813 156.431 122.32 161.676 122.387C285.66 123.963 376.253 138.611 390 118.453C370.899 115.057 358.006 101.874 351.319 81.1073C349.877 76.6298 340.564 73.4452 335.966 72.4501C330.154 71.1921 323.311 66.3219 316.989 57.3509C315.507 55.2477 312.747 54.439 310.399 55.4913C296.74 61.6133 275.417 66.7825 255.046 23.0562C254.139 21.1088 252.653 19.9569 250.508 20.0843C245.357 20.3904 216.853 27.3153 214.861 32.0755C212.53 37.648 209.885 44.7672 207 54.3747C203.631 65.5912 189.721 76.7647 173.134 69.8099C169.429 68.2564 164.744 70.4471 164.63 74.4628Z" fill="#5B9176"/>
<path d="M164.766 70.9066C159.098 92.5143 148.147 120.422 117 120.422C251.5 120.422 380.5 138.907 395 121.606C375.057 121.606 354.329 109.673 345.697 89.751C344.181 86.2529 339.273 84.8514 335.507 85.4411C325.782 86.9638 315.055 77.8784 310.353 68.9346C309.084 66.5219 306.389 64.9846 303.712 65.4986C282.453 69.5808 269.391 60.4334 254.675 23.2599C253.712 20.8277 251.064 19.5369 248.519 20.1416C239.91 22.1873 234.477 21.2222 229.546 10.8946C228.691 9.10432 216.865 5.48663 214.882 5.44608C213.239 5.4125 211.028 8.08706 210.834 9.71874C209.131 24.0439 208.199 41.7334 195 61.9281C190.222 69.2392 182.647 70.785 175.935 67.4175C172.013 65.4496 165.879 66.6619 164.766 70.9066Z" fill="#8CB09E"/>
<path opacity="0.3" d="M123.592 119.081C123.069 119.131 122.538 119.171 122 119.203C122.357 119.155 122.891 119.115 123.592 119.081C151.231 116.467 157.864 88.7722 162.331 68.9657C163.084 65.6309 166.819 64.1748 169.649 66.0913C174.605 69.4461 180.417 72.9649 185.199 72.4418C186.277 72.3238 187.159 71.6035 187.77 70.7075C197.62 56.2506 206.528 41.6373 210.457 9.87294C210.744 7.55136 213.904 4.64631 216.073 5.52241C218.452 6.48324 227.625 7.72206 228.775 10.0152C232.443 17.3246 235.4 19.6538 233.703 21.202C230.818 23.8334 224.898 24.9305 227.302 30.1933C229.707 35.4561 247.979 54.6459 239.324 57.3309C230.668 60.0159 213.358 73.6115 219.128 79.3129C224.898 85.0143 271.602 91.4043 239.324 102.241C229.444 105.558 294.042 119.203 200.79 119.203C162.234 119.203 131.705 118.694 123.592 119.081Z" fill="#E6E6E0"/>
</g>
<defs>
<clipPath id="clip0_191_298">
<rect width="395" height="119" fill="white"/>
</clipPath>
</defs>
</svg>
