<svg width="621" height="125" viewBox="0 0 621 125" fill="none" xmlns="http://www.w3.org/2000/svg">
<path d="M121 62C87 70.8 70.5 88 0 88L211.5 125C265.5 104 381 92.5 349 88C314.042 83.084 310.5 73 277.5 62C244.5 51 163.5 51 121 62Z" fill="#437D60"/>
<path d="M267.063 24.8165L223.516 38.5139L223.516 11.119L267.063 24.8165Z" fill="#FFB595"/>
<path d="M223.076 10.5063V68.5" stroke="#E6E6E0" stroke-width="4"/>
<path d="M191.133 49.9574C192.779 48.6459 195.037 50.5409 194.032 52.3897V52.3897V52.3897C195.99 53.1596 195.478 56.0628 193.374 56.1162V56.1162V56.1162C193.687 58.1976 190.917 59.2058 189.819 57.4105V57.4105V57.4105C188.173 58.7219 185.914 56.827 186.92 54.9781V54.9781V54.9781C184.961 54.2083 185.473 51.3051 187.577 51.2516V51.2516V51.2516C187.264 49.1703 190.035 48.162 191.133 49.9574V49.9574V49.9574Z" fill="#D9D9D9"/>
<path d="M238.114 51.9433C239.758 50.6333 242.014 52.5261 241.01 54.373V54.373V54.373C242.966 55.142 242.455 58.042 240.353 58.0954V58.0954V58.0954C240.666 60.1745 237.898 61.1816 236.801 59.3882V59.3882V59.3882C235.157 60.6983 232.901 58.8054 233.906 56.9586V56.9586V56.9586C231.949 56.1895 232.46 53.2895 234.562 53.2361V53.2361V53.2361C234.25 51.157 237.017 50.1499 238.114 51.9433V51.9433V51.9433Z" fill="#D9D9D9"/>
<path d="M205.981 55.2562C206.203 53.4669 208.797 53.4669 209.019 55.2562V55.2562V55.2562C210.802 54.91 211.598 57.4006 209.957 58.1808V58.1808V58.1808C210.82 59.7675 208.727 61.3137 207.5 59.9882V59.9882V59.9882C206.273 61.3137 204.18 59.7675 205.043 58.1808V58.1808V58.1808C203.402 57.4006 204.198 54.91 205.981 55.2562V55.2562V55.2562Z" fill="#D9D9D9"/>
<circle cx="190.5" cy="53.5" r="1.5" fill="#FFB595"/>
<circle cx="207.5" cy="57.5" r="1.5" fill="#FFB595"/>
<circle cx="237.5" cy="55.5" r="1.5" fill="#FFB595"/>
<path d="M238.5 69.5745L236 83.766L286 85L283.5 59.0851L278.5 79.4468L275 65.2553L267.5 80.6809L264 65.2553L261.5 78.2128L252 56V80.6809L247 68.3404L243 78.2128L238.5 69.5745Z" fill="#0C5646"/>
<path d="M117.639 58.3558L116.877 70.0997L166.47 63.65L160.873 43.2556L158.384 60.3158L153.212 49.4645L147.655 62.9412L142.334 51.101L141.424 61.8561L129.352 45.4697L132.327 65.2472L125.895 56.1023L123.13 64.6084L117.639 58.3558Z" fill="#0C5646"/>
<path d="M160.133 64.9574C161.779 63.6459 164.037 65.5409 163.032 67.3897V67.3897V67.3897C164.99 68.1596 164.478 71.0628 162.374 71.1162V71.1162V71.1162C162.687 73.1976 159.917 74.2058 158.819 72.4105V72.4105V72.4105C157.173 73.7219 154.914 71.827 155.92 69.9781V69.9781V69.9781C153.961 69.2083 154.473 66.3051 156.577 66.2516V66.2516V66.2516C156.264 64.1703 159.035 63.162 160.133 64.9574V64.9574V64.9574Z" fill="#D9D9D9"/>
<circle cx="159.5" cy="68.5" r="1.5" fill="#FFB595"/>
<path d="M126.981 55.2562C127.203 53.4669 129.797 53.4669 130.019 55.2562V55.2562V55.2562C131.802 54.91 132.598 57.4006 130.957 58.1808V58.1808V58.1808C131.82 59.7675 129.727 61.3137 128.5 59.9882V59.9882V59.9882C127.273 61.3137 125.18 59.7675 126.043 58.1808V58.1808V58.1808C124.402 57.4006 125.198 54.91 126.981 55.2562V55.2562V55.2562Z" fill="#D9D9D9"/>
<circle cx="128.5" cy="57.5" r="1.5" fill="#FFB595"/>
<path d="M259.114 59.9433C260.758 58.6333 263.014 60.5261 262.01 62.373V62.373V62.373C263.966 63.142 263.455 66.042 261.353 66.0954V66.0954V66.0954C261.666 68.1745 258.898 69.1816 257.801 67.3882V67.3882V67.3882C256.157 68.6983 253.901 66.8054 254.906 64.9586V64.9586V64.9586C252.949 64.1895 253.46 61.2895 255.562 61.2361V61.2361V61.2361C255.25 59.157 258.017 58.1499 259.114 59.9433V59.9433V59.9433Z" fill="#D9D9D9"/>
<circle cx="258.415" cy="63.2109" r="1.5" fill="#FFB595"/>
</svg>
