<svg width="44" height="44" viewBox="0 0 44 44" fill="none" xmlns="http://www.w3.org/2000/svg">
<path d="M35.6797 34.543C35.6797 34.543 34.9232 31.9606 34.9232 28.7217C34.9232 25.4829 37.8012 22.6962 38.6099 20.5398C39.4185 18.3835 43.9138 20.092 40.7662 18.2922C37.6187 16.4924 37.7099 13.9752 31.9539 13.4361C26.1979 12.897 29.4368 10.8276 26.8283 10.5581C24.2198 10.2885 23.5025 7.59313 22.7808 6.6932C22.0591 5.79328 21.52 5.52374 19.0029 7.41053C16.4857 9.29732 16.1249 7.85831 14.7772 10.8276C13.4294 13.7969 12.8904 13.8839 7.22564 14.962C5.39536 15.3098 4.07373 15.562 2.40866 16.7619L2 17.3097C2 29.0087 11.4818 38.4904 23.1808 38.4904C27.8673 38.4904 32.2538 37.3385 35.7622 34.7604L35.6797 34.543Z" fill="white" stroke="#005644" stroke-width="0.8" stroke-miterlimit="10"/>
<path d="M6.89404 30.8522C7.73745 30.3609 9.28079 29.1828 9.89378 28.5133C14.4021 23.6137 16.9106 22.4008 21.0928 26.0222C25.5794 29.9045 35.7133 34.3954 35.7133 34.3954" stroke="#005644" stroke-width="0.8" stroke-miterlimit="10"/>
<path d="M33.1761 35.9953C33.1761 35.9953 30.6937 31.6392 22.7596 30.4784C17.0905 29.648 15.2428 26.5396 10.7128 30.4262C10.1781 30.887 9.0086 32 8.26953 32.3521" stroke="#005644" stroke-width="0.8" stroke-miterlimit="10"/>
<path d="M5.625 29.1606C7.09444 28.4911 9.60726 26.6043 10.7115 25.2088C13.6373 21.5048 18.3065 19.4441 21.528 22.7134C26.0232 27.2695 27.6057 28.7346 34.9442 31.1996" stroke="#005644" stroke-width="0.8" stroke-miterlimit="10"/>
<path d="M4.68213 27.6303C6.13852 26.8217 7.84707 24.8175 8.92089 23.3742C13.8074 16.8269 17.0376 16.6313 20.4155 18.6354C23.7935 20.6396 30.3799 28.8998 34.9099 29.3171" stroke="#005644" stroke-width="0.8" stroke-miterlimit="10"/>
<path d="M22.4551 20.0527C23.1941 18.3876 24.9375 17.3007 26.859 17.4833C29.2588 17.7094 31.0196 19.831 30.7935 22.2177C30.65 23.7089 29.7675 24.9523 28.5372 25.6218" stroke="#005644" stroke-width="0.8" stroke-miterlimit="10"/>
</svg>
